<?xml version="1.0" standalone="no"?>
<!DOCTYPE svg PUBLIC "-//W3C//DTD SVG 1.0//EN" "http://www.w3.org/TR/2001/REC-SVG-20010904/DTD/svg10.dtd">
<svg xmlns="http://www.w3.org/2000/svg" xmlns:xlink="http://www.w3.org/1999/xlink" id="body_1" width="40" height="40">

<g transform="matrix(0.0390625 0 0 0.0390625 0 0)">
    <path d="M513.0449 909.0612C 506.25308 909.0612 499.9837 905.9265 495.28165 901.2245C 492.6694 898.0898 431.54288 828.60406 369.8939 730.38367C 333.32245 672.39185 304.0653 617.0122 283.16736 564.76733C 256.52246 498.41632 242.93878 437.81223 242.93878 384.52243C 242.93878 312.42447 271.15103 245.02855 321.82858 194.351C 372.50613 143.67345 440.4245 114.938774 512 114.938774C 583.5755 114.938774 651.4939 143.15102 702.17145 193.82857C 752.849 244.50612 781.0612 312.4245 781.0612 384C 781.0612 437.2898 767.47754 498.41632 741.3551 564.2449C 720.45715 616.48975 691.7225 671.8694 655.151 729.8612C 593.502 828.0816 532.89795 897.5673 530.2857 900.17957C 526.10614 905.9265 519.83673 909.0612 513.04486 909.0612L513.04486 909.0612L513.0449 909.0612z" stroke="none" fill="#16C4AF" fill-rule="nonzero" />
    <path d="M512 510.9551C 444.60406 510.9551 390.26938 456.09796 390.26938 389.2245C 390.26938 322.351 444.6041 267.49387 512 267.49387C 579.3959 267.49387 633.7306 322.351 633.7306 389.2245C 633.7306 456.09796 579.39594 510.9551 512 510.9551z" stroke="none" fill="#0B9682" fill-rule="nonzero" />
</g>
</svg>